<svg width="160" height="28" viewBox="0 0 160 28" fill="none" xmlns="http://www.w3.org/2000/svg">
<path d="M14.2031 27H8.53125L0.125 4.5H6.45312L12.6875 22.6094L18.3281 4.5H22.1719L14.2031 27Z" fill="url(#paint0_linear_24_3)"/>
<path d="M41.57 27H36.2887V24.8438C35.6637 25.6979 34.9085 26.3333 34.0231 26.75C33.1481 27.1562 32.1846 27.3594 31.1325 27.3594C29.7575 27.3594 28.5283 27.1146 27.445 26.625C26.3617 26.1354 25.445 25.4688 24.695 24.625C23.945 23.7708 23.3721 22.7708 22.9762 21.625C22.5804 20.4792 22.3825 19.25 22.3825 17.9375C22.3825 16.625 22.5804 15.3958 22.9762 14.25C23.3721 13.1042 23.945 12.1094 24.695 11.2656C25.445 10.4115 26.3617 9.73958 27.445 9.25C28.5283 8.76042 29.7575 8.51562 31.1325 8.51562C31.8304 8.51562 32.4919 8.61979 33.1169 8.82812C33.7523 9.03646 34.3304 9.33333 34.8512 9.71875C35.3825 10.0938 35.846 10.5521 36.2419 11.0938C36.6481 11.625 36.9658 12.2188 37.195 12.875L39.5387 8.95312H41.57V27ZM36.2575 17.9375C36.2575 17.4688 36.2315 16.974 36.1794 16.4531C36.1377 15.9323 36.0596 15.4167 35.945 14.9062C35.8304 14.3958 35.669 13.9115 35.4606 13.4531C35.2627 12.9844 35.0023 12.5729 34.6794 12.2188C34.3669 11.8542 33.9867 11.5677 33.5387 11.3594C33.0908 11.151 32.57 11.0469 31.9762 11.0469C31.3825 11.0469 30.8669 11.1562 30.4294 11.375C29.9919 11.5833 29.6169 11.8698 29.3044 12.2344C28.9919 12.5885 28.7315 13 28.5231 13.4688C28.3252 13.9375 28.169 14.4271 28.0544 14.9375C27.9398 15.4479 27.8565 15.9635 27.8044 16.4844C27.7627 16.9948 27.7419 17.4792 27.7419 17.9375C27.7419 18.3958 27.7627 18.8854 27.8044 19.4062C27.8565 19.9271 27.9398 20.4427 28.0544 20.9531C28.169 21.4635 28.3252 21.9531 28.5231 22.4219C28.7315 22.8906 28.9919 23.3073 29.3044 23.6719C29.6169 24.026 29.9919 24.3125 30.4294 24.5312C30.8669 24.7396 31.3825 24.8438 31.9762 24.8438C32.5179 24.8438 32.9971 24.7344 33.4137 24.5156C33.8408 24.2865 34.2106 23.9844 34.5231 23.6094C34.846 23.2344 35.1169 22.8073 35.3356 22.3281C35.5544 21.849 35.7315 21.3542 35.8669 20.8438C36.0023 20.3333 36.1012 19.8281 36.1637 19.3281C36.2262 18.8177 36.2575 18.3542 36.2575 17.9375Z" fill="url(#paint1_linear_24_3)"/>
<path d="M51.5931 27H46.3119V0.640625H48.3431L51.5931 6.125V27Z" fill="url(#paint2_linear_24_3)"/>
<path d="M60.6631 18.4375C61.309 18.5833 61.9548 18.6979 62.6006 18.7812C63.2465 18.8646 63.8975 18.9062 64.5537 18.9062C65.2412 18.9062 65.8767 18.8438 66.46 18.7188C67.0537 18.5833 67.5642 18.3646 67.9912 18.0625C68.4287 17.75 68.7725 17.3385 69.0225 16.8281C69.2725 16.3177 69.3975 15.6823 69.3975 14.9219C69.3975 14.3073 69.3142 13.7448 69.1475 13.2344C68.9808 12.724 68.7308 12.2865 68.3975 11.9219C68.0746 11.5573 67.6735 11.276 67.1944 11.0781C66.7152 10.8698 66.1579 10.7656 65.5225 10.7656C64.9287 10.7656 64.3923 10.875 63.9131 11.0938C63.4444 11.3125 63.0277 11.6094 62.6631 11.9844C62.309 12.349 62.0017 12.776 61.7412 13.2656C61.4912 13.7552 61.2829 14.2656 61.1162 14.7969C60.9496 15.3281 60.8298 15.8646 60.7569 16.4062C60.684 16.9479 60.6475 17.4583 60.6475 17.9375C60.6475 18.0208 60.6475 18.1042 60.6475 18.1875C60.6475 18.2708 60.6527 18.3542 60.6631 18.4375ZM73.6787 14.875C73.6787 15.6146 73.559 16.276 73.3194 16.8594C73.0798 17.4323 72.7517 17.9375 72.335 18.375C71.9287 18.8125 71.4548 19.1823 70.9131 19.4844C70.3715 19.7865 69.7933 20.0365 69.1787 20.2344C68.5642 20.4219 67.9287 20.5573 67.2725 20.6406C66.6267 20.724 65.9965 20.7656 65.3819 20.7656C64.6006 20.7656 63.8298 20.7135 63.0694 20.6094C62.309 20.4948 61.559 20.3177 60.8194 20.0781C60.934 20.7656 61.1162 21.4219 61.3662 22.0469C61.6162 22.6615 61.9496 23.2031 62.3662 23.6719C62.7829 24.1302 63.2933 24.4948 63.8975 24.7656C64.5121 25.0365 65.236 25.1719 66.0694 25.1719C66.6215 25.1719 67.1475 25.0885 67.6475 24.9219C68.1475 24.7552 68.6058 24.5208 69.0225 24.2188C69.4392 23.9167 69.8037 23.5573 70.1162 23.1406C70.4392 22.724 70.6996 22.2604 70.8975 21.75L73.1787 22.5938C72.835 23.4167 72.361 24.1302 71.7569 24.7344C71.1631 25.3281 70.486 25.8229 69.7256 26.2188C68.9756 26.6042 68.1735 26.8906 67.3194 27.0781C66.4756 27.2656 65.6371 27.3594 64.8037 27.3594C63.4287 27.3594 62.1579 27.1302 60.9912 26.6719C59.8246 26.2031 58.8194 25.5521 57.9756 24.7188C57.1319 23.8854 56.4704 22.8906 55.9912 21.7344C55.5121 20.5781 55.2725 19.3125 55.2725 17.9375C55.2725 16.5625 55.5121 15.2969 55.9912 14.1406C56.4704 12.9844 57.1319 11.9896 57.9756 11.1562C58.8194 10.3229 59.8246 9.67708 60.9912 9.21875C62.1579 8.75 63.4287 8.51562 64.8037 8.51562C65.4704 8.51562 66.1527 8.5625 66.8506 8.65625C67.5485 8.75 68.2256 8.90104 68.8819 9.10938C69.5381 9.30729 70.1579 9.56771 70.7412 9.89062C71.3246 10.2135 71.8298 10.6146 72.2569 11.0938C72.6944 11.5625 73.0381 12.1094 73.2881 12.7344C73.5485 13.3594 73.6787 14.0729 73.6787 14.875Z" fill="url(#paint3_linear_24_3)"/>
<path d="M96.1237 21.875H94.5612V27H88.3581V21.875H75.4987C75.78 20.6771 76.1446 19.4531 76.5925 18.2031C77.0404 16.9531 77.5456 15.7188 78.1081 14.5C78.681 13.2812 79.3008 12.0885 79.9675 10.9219C80.6342 9.75521 81.3321 8.65625 82.0612 7.625H86.3894C85.4935 9.11458 84.7435 10.5417 84.1394 11.9062C83.5456 13.2708 83.0665 14.4844 82.7019 15.5469C82.2748 16.7865 81.9415 17.9427 81.7019 19.0156H88.3581V4.5H94.5612V19.0156H96.1237V21.875Z" fill="url(#paint4_linear_24_3)"/>
<path d="M118.725 4.5L111.444 17.5469V27H105.241V17.8906L97.8812 4.5H104.209L109.1 15.8125L114.35 4.5H118.725Z" fill="url(#paint5_linear_24_3)"/>
<path d="M138.279 17.9375C138.279 18.875 138.154 19.7552 137.904 20.5781C137.654 21.401 137.305 22.1615 136.857 22.8594C136.42 23.5573 135.889 24.1875 135.264 24.75C134.639 25.3021 133.951 25.7708 133.201 26.1562C132.462 26.5417 131.665 26.8385 130.811 27.0469C129.967 27.2552 129.097 27.3594 128.201 27.3594C127.305 27.3594 126.436 27.2552 125.592 27.0469C124.748 26.8385 123.951 26.5417 123.201 26.1562C122.462 25.7708 121.779 25.3021 121.154 24.75C120.529 24.1875 119.993 23.5573 119.545 22.8594C119.107 22.1615 118.764 21.401 118.514 20.5781C118.264 19.7448 118.139 18.8646 118.139 17.9375C118.139 17.0104 118.264 16.1354 118.514 15.3125C118.764 14.4792 119.107 13.7135 119.545 13.0156C119.993 12.3177 120.529 11.6927 121.154 11.1406C121.779 10.5781 122.462 10.1042 123.201 9.71875C123.951 9.33333 124.748 9.03646 125.592 8.82812C126.436 8.61979 127.305 8.51562 128.201 8.51562C129.097 8.51562 129.967 8.61979 130.811 8.82812C131.665 9.03646 132.462 9.33333 133.201 9.71875C133.951 10.1042 134.639 10.5781 135.264 11.1406C135.889 11.6927 136.42 12.3177 136.857 13.0156C137.305 13.7135 137.654 14.4792 137.904 15.3125C138.154 16.1354 138.279 17.0104 138.279 17.9375ZM132.904 17.9375C132.904 17.4375 132.873 16.9115 132.811 16.3594C132.759 15.7969 132.665 15.25 132.529 14.7188C132.394 14.1771 132.206 13.6615 131.967 13.1719C131.738 12.6719 131.451 12.2396 131.107 11.875C130.764 11.5 130.352 11.2031 129.873 10.9844C129.394 10.7552 128.837 10.6406 128.201 10.6406C127.597 10.6406 127.061 10.7552 126.592 10.9844C126.123 11.2135 125.712 11.5208 125.357 11.9062C125.014 12.2812 124.722 12.7188 124.482 13.2188C124.253 13.7188 124.066 14.2396 123.92 14.7812C123.774 15.3125 123.67 15.8542 123.607 16.4062C123.545 16.9479 123.514 17.4583 123.514 17.9375C123.514 18.4167 123.545 18.9323 123.607 19.4844C123.67 20.026 123.774 20.5677 123.92 21.1094C124.066 21.651 124.253 22.1719 124.482 22.6719C124.722 23.1615 125.014 23.599 125.357 23.9844C125.712 24.3594 126.123 24.6615 126.592 24.8906C127.061 25.1198 127.597 25.2344 128.201 25.2344C128.826 25.2344 129.378 25.125 129.857 24.9062C130.337 24.6771 130.748 24.375 131.092 24C131.446 23.625 131.738 23.1927 131.967 22.7031C132.196 22.2135 132.378 21.6979 132.514 21.1562C132.66 20.6146 132.759 20.0677 132.811 19.5156C132.873 18.9635 132.904 18.4375 132.904 17.9375Z" fill="url(#paint6_linear_24_3)"/>
<path d="M141.021 19.2812C141.021 18.4583 141.089 17.6042 141.224 16.7188C141.37 15.8333 141.573 14.9479 141.834 14.0625C142.105 13.1771 142.428 12.3021 142.803 11.4375C143.178 10.5729 143.599 9.74479 144.068 8.95312H147.928C147.667 9.73438 147.433 10.5521 147.224 11.4062C147.026 12.25 146.855 13.099 146.709 13.9531C146.573 14.7969 146.464 15.625 146.381 16.4375C146.308 17.25 146.271 18.0052 146.271 18.7031C146.271 19.1094 146.287 19.5469 146.318 20.0156C146.36 20.474 146.428 20.9375 146.521 21.4062C146.615 21.8646 146.745 22.3073 146.912 22.7344C147.089 23.1615 147.313 23.5417 147.584 23.875C147.855 24.1979 148.183 24.4583 148.568 24.6562C148.964 24.8438 149.428 24.9375 149.959 24.9375C150.48 24.9375 150.943 24.8229 151.349 24.5938C151.766 24.3542 152.131 24.0469 152.443 23.6719C152.756 23.2865 153.021 22.849 153.24 22.3594C153.459 21.8698 153.636 21.3698 153.771 20.8594C153.917 20.3385 154.021 19.8333 154.084 19.3438C154.157 18.8438 154.193 18.3958 154.193 18V8.95312H159.474V27H157.443L155.021 22.7969C154.719 23.4948 154.349 24.1302 153.912 24.7031C153.485 25.2656 152.995 25.75 152.443 26.1562C151.891 26.5625 151.276 26.875 150.599 27.0938C149.933 27.3125 149.209 27.4219 148.428 27.4219C147.178 27.4219 146.089 27.2188 145.162 26.8125C144.235 26.4062 143.464 25.8438 142.849 25.125C142.235 24.4062 141.776 23.5521 141.474 22.5625C141.172 21.5625 141.021 20.4688 141.021 19.2812Z" fill="url(#paint7_linear_24_3)"/>
<defs>
<linearGradient id="paint0_linear_24_3" x1="81" y1="2" x2="81" y2="34" gradientUnits="userSpaceOnUse">
<stop stop-color="#FDFF00"/>
<stop offset="1" stop-color="#FFC800"/>
</linearGradient>
<linearGradient id="paint1_linear_24_3" x1="81" y1="2" x2="81" y2="34" gradientUnits="userSpaceOnUse">
<stop stop-color="#FDFF00"/>
<stop offset="1" stop-color="#FFC800"/>
</linearGradient>
<linearGradient id="paint2_linear_24_3" x1="81" y1="2" x2="81" y2="34" gradientUnits="userSpaceOnUse">
<stop stop-color="#FDFF00"/>
<stop offset="1" stop-color="#FFC800"/>
</linearGradient>
<linearGradient id="paint3_linear_24_3" x1="81" y1="2" x2="81" y2="34" gradientUnits="userSpaceOnUse">
<stop stop-color="#FDFF00"/>
<stop offset="1" stop-color="#FFC800"/>
</linearGradient>
<linearGradient id="paint4_linear_24_3" x1="81" y1="2" x2="81" y2="34" gradientUnits="userSpaceOnUse">
<stop stop-color="#B17BFF"/>
<stop offset="0.994" stop-color="#6B399C"/>
</linearGradient>
<linearGradient id="paint5_linear_24_3" x1="81" y1="2" x2="81" y2="34" gradientUnits="userSpaceOnUse">
<stop stop-color="#FDFF00"/>
<stop offset="1" stop-color="#FFC800"/>
</linearGradient>
<linearGradient id="paint6_linear_24_3" x1="81" y1="2" x2="81" y2="34" gradientUnits="userSpaceOnUse">
<stop stop-color="#FDFF00"/>
<stop offset="1" stop-color="#FFC800"/>
</linearGradient>
<linearGradient id="paint7_linear_24_3" x1="81" y1="2" x2="81" y2="34" gradientUnits="userSpaceOnUse">
<stop stop-color="#FDFF00"/>
<stop offset="1" stop-color="#FFC800"/>
</linearGradient>
</defs>
</svg>
